<svg width="321" height="662" viewBox="0 0 321 662" fill="none" xmlns="http://www.w3.org/2000/svg">
<g opacity="0.96">
<path d="M81.5169 246.264L87.5914 243.786L92.3888 247.288L91.7882 241.261L96.7737 237.252L90.7933 235.975L89.0567 230.295L85.5545 235.092L79.527 235.693L83.5357 240.678L81.5169 246.264Z" fill="#FF8266"/>
<path d="M91.5281 307.236L112.001 342.335" stroke="#FF6680" stroke-width="3" stroke-linecap="round"/>
<path d="M31.5449 540.911C31.9492 536.29 29.2798 532.281 25.5825 531.958C21.8853 531.634 18.5603 535.118 18.156 539.74C17.7517 544.361 20.4211 548.37 24.1183 548.694C27.8155 549.017 31.1405 545.533 31.5449 540.911Z" fill="#BA66FF"/>
<path d="M73.396 214.322L62.1163 220.419L58.0892 212.274L68.9488 206.905L73.396 214.322Z" fill="#66FFFC"/>
<path d="M62.8379 151.969L54.3032 149.952L56.3209 141.417L65.2755 142.707L62.8379 151.969Z" fill="#FF66FA"/>
<path d="M164.736 402.426C163.149 406.786 165.044 411.477 168.967 412.905C172.891 414.333 177.358 411.957 178.944 407.598C180.531 403.238 178.637 398.546 174.713 397.118C170.79 395.69 166.323 398.067 164.736 402.426Z" fill="#C766FF"/>
<path d="M218.273 296.027L211.133 308.394L200.949 302.514L208.089 290.147L218.273 296.027Z" fill="#FF7566"/>
<path d="M162.972 220.452L152.173 212.277L162.028 198.567L173.555 207.162L162.972 220.452Z" fill="#DB66FF"/>
<path d="M99.8479 193.706L97.6133 180.777L111.015 189.484L99.8479 193.706Z" fill="#667DFF"/>
<path d="M207.372 188.389C209.457 193.551 213.589 196.749 216.6 195.533C219.611 194.316 220.361 189.145 218.275 183.984C216.19 178.822 212.059 175.624 209.048 176.841C206.037 178.057 205.286 183.228 207.372 188.389Z" fill="#DEFF66"/>
<path d="M12.3929 73.8627C14.5927 79.0125 17.6801 79.8251 21.655 76.3003C25.6299 72.7755 28.7173 73.5881 30.917 78.7379C32.6319 83.6078 35.8592 84.1778 40.5991 80.4481C44.0891 76.6433 46.9339 77.3159 49.1337 82.4657" stroke="#A3FF66" stroke-width="3" stroke-linecap="round"/>
<path d="M78.9621 485.242L95.1913 490.732" stroke="#66FFAD" stroke-width="4" stroke-linecap="round"/>
<path d="M14.3085 427.545L4.17624 433.334L2.55655 422.7L14.3085 427.545Z" fill="#FF66AB"/>
<path d="M57.8554 592.359L72.9673 591.385L73.8596 601.599L58.7476 602.574L57.8554 592.359Z" fill="#A1FF66"/>
<path d="M77.1819 276.645L98.1658 290.7" stroke="#FF66AB" stroke-width="4" stroke-linecap="round"/>
<path d="M123.369 410.005L126.115 401.891L131.402 407.853L123.369 410.005Z" fill="#FF9C66"/>
<path d="M136.898 460.494C136.918 455.979 135.081 455.242 131.386 458.281C128.176 461.601 126.581 461.004 126.601 456.489C126.901 451.489 125.064 450.751 121.089 454.276C117.879 457.596 116.284 456.999 116.304 452.484" stroke="#8A66FF" stroke-width="4" stroke-linecap="round"/>
<path d="M1.44512 485.105L15.0197 478.393L21.4242 490.82L7.84958 497.532L1.44512 485.105Z" fill="#669EFF"/>
<path d="M-4.79988 62.4815L-9.2691 36.6224" stroke="#BA66FF" stroke-width="3" stroke-linecap="round"/>
<path d="M281.351 258.068C278.128 257.672 275.332 258.844 275.105 260.686C274.879 262.528 277.309 264.342 280.532 264.738C283.755 265.133 286.552 263.961 286.778 262.119C287.004 260.277 284.574 258.463 281.351 258.068Z" fill="#75FF66"/>
<path d="M10.7199 179.211C11.7174 181.81 13.9305 183.378 15.6629 182.713C17.3953 182.047 17.9911 179.402 16.9936 176.803C15.996 174.205 13.783 172.637 12.0505 173.302C10.3181 173.967 9.72237 176.613 10.7199 179.211Z" fill="#66FFE5"/>
<path d="M73.9845 386.343L79.8564 401.372L65.2469 406.517L60.5224 391.18L73.9845 386.343Z" fill="#BF66FF"/>
<path d="M169.57 329.985L159.55 333.899L154.098 318.142L164.118 314.228L169.57 329.985Z" fill="#66FFDE"/>
<path d="M-30.2991 559.407C-25.0943 560.472 -22.8268 558.225 -23.4967 552.665C-24.1665 547.105 -21.6566 544.998 -15.9668 546.343C-10.7621 547.408 -8.49462 545.161 -9.16446 539.601C-10.5993 534.246 -8.47182 532.241 -2.78208 533.586" stroke="#6E66FF" stroke-width="4" stroke-linecap="round"/>
<path d="M18.1561 253.721C23.3608 254.786 25.6283 252.538 24.9584 246.978C24.2886 241.419 26.7986 239.311 32.4883 240.656C37.6931 241.721 39.9605 239.474 39.2907 233.914C37.8559 228.559 39.9833 226.555 45.6731 227.9" stroke="#F766FF" stroke-width="3" stroke-linecap="round"/>
<path d="M29.4666 369.37L-2.15184 356.935" stroke="#66FAFF" stroke-width="4" stroke-linecap="round"/>
<path d="M-6.58923 581.341L16.4645 598.531" stroke="#7D66FF" stroke-width="4" stroke-linecap="round"/>
<path d="M184.012 233.569C179.368 231.534 177.278 232.914 177.743 237.709C177.927 242.989 175.697 244.611 171.053 242.576C166.408 240.541 164.318 241.921 164.783 246.716C165.733 251.79 163.745 253.553 158.82 252.003" stroke="#66FFE0" stroke-width="4" stroke-linecap="round"/>
<path d="M274.246 197.4C269.881 194.88 268.174 196.157 269.124 201.232C269.588 206.027 267.498 207.407 262.854 205.372C258.209 203.337 256.361 204.857 257.311 209.932C257.776 214.726 255.826 215.864 251.461 213.344" stroke="#66FFA3" stroke-width="3" stroke-linecap="round"/>
<path d="M255.742 305.05L234.967 337.673" stroke="#66FF8C" stroke-width="3" stroke-linecap="round"/>
<path d="M15.0163 139.879C13.5815 134.524 10.6341 133.469 6.17421 136.714C1.50934 139.194 -1.54051 137.756 -2.97533 132.401C-3.92517 127.326 -6.87253 126.271 -11.8174 129.236C-15.5123 132.276 -18.3197 130.978 -20.2395 125.344" stroke="#FF669C" stroke-width="3" stroke-linecap="round"/>
<path d="M137.376 540.306L122.961 548.473L118.627 539.18L133.041 531.013L137.376 540.306Z" fill="#FFED66"/>
<path d="M70.4361 106.889L74.3286 98.4668L79.5032 106.304L70.4361 106.889Z" fill="#FF66BA"/>
<path d="M70.5769 437.194L68.4613 435.027L68.1636 432.387L65.9963 434.503L63.706 433.157L64.8254 435.971L62.6582 438.087L65.2977 437.789L67.2387 440.778L67.9373 437.492L70.5769 437.194Z" fill="#91FF66"/>
<path d="M141.528 333.194L130.098 373.152" stroke="#66E6FF" stroke-width="3" stroke-linecap="round"/>
<path d="M161.286 154.492L160.386 169.491L144.659 168.171L145.559 153.171L161.286 154.492Z" fill="#668CFF"/>
<path d="M25.4557 310.797L26.5428 324.034L14.5658 322.939L25.4557 310.797Z" fill="#66FF99"/>
<path d="M165.42 443.013L171.179 459.917" stroke="#FF6696" stroke-width="4" stroke-linecap="round"/>
<path d="M221.71 226.235L219.775 239.667L209.395 230.765L221.71 226.235Z" fill="#66FFD6"/>
<path d="M102.46 250.501C107.665 251.567 110.072 249.077 109.683 243.032C108.733 237.957 111.103 236.092 116.792 237.437C122.277 238.017 124.685 235.528 124.015 229.968C123.065 224.893 125.192 222.888 130.397 223.953" stroke="#66FFE3" stroke-width="4" stroke-linecap="round"/>
<path d="M94.032 353.3L84.155 348.567L91.6848 342.245L94.032 353.3Z" fill="#66DEFF"/>
<path d="M219.517 344.273L210.052 364.027" stroke="#66CCFF" stroke-width="3" stroke-linecap="round"/>
<path d="M152.513 416.647C147.868 414.612 145.256 416.337 144.676 421.822C145.346 427.382 142.976 429.246 137.566 427.416C132.436 425.101 130.206 426.724 130.876 432.284C130.296 437.768 127.684 439.493 123.039 437.458" stroke="#66FFE5" stroke-width="3" stroke-linecap="round"/>
<path d="M144.785 385.512C148.555 381.222 147.875 377.92 142.746 375.605C137.616 373.29 136.936 369.987 140.706 365.698C144.681 362.173 144.104 359.253 138.974 356.938C134.124 354.138 133.584 350.593 137.354 346.303" stroke="#6691FF" stroke-width="4" stroke-linecap="round"/>
<path d="M131.342 271.59L134.756 276.593L132.239 282.824L138.485 280.818L142.993 285.357L142.859 278.961L148.641 275.861L143.189 273.659L141.183 267.412L137.423 272.235L131.342 271.59Z" fill="#66FFD6"/>
<path d="M71.8224 480.181C66.9433 476.636 61.6616 475.588 60.0255 477.84C58.3894 480.092 61.0184 484.791 65.8975 488.336C70.7767 491.881 76.0583 492.929 77.6944 490.677C79.3305 488.426 76.7015 483.726 71.8224 480.181Z" fill="#6696FF"/>
<path d="M-4.90584 126.631L-4.42702 133.541L-9.24051 137.755L-2.61 139.133L0.265482 145.265L3.76094 139.713L9.8723 139.494L5.39904 133.881L6.77757 127.251L0.646045 130.126L-4.90584 126.631Z" fill="#7066FF"/>
<path d="M162.88 442.253C167.381 443.376 171.667 441.731 172.453 438.58C173.238 435.429 170.226 431.965 165.725 430.843C161.223 429.72 156.937 431.365 156.152 434.516C155.366 437.667 158.378 441.131 162.88 442.253Z" fill="#FFF566"/>
<path d="M97.0064 153.268L107.372 118.514" stroke="#FF8C66" stroke-width="3" stroke-linecap="round"/>
<path d="M281.257 237.336L278.07 227.736L286.942 224.129L290.437 234.876L281.257 237.336Z" fill="#FF7366"/>
<path d="M61.5611 555.701L64.4187 545.711L79.613 549.634L77.1754 558.896L61.5611 555.701Z" fill="#66FFCF"/>
<path d="M17.5301 242.205C13.1653 239.685 11.4579 240.962 12.4077 246.037C12.8726 250.832 10.7826 252.212 6.13787 250.177C1.4931 248.142 -0.354358 249.661 0.595487 254.736C1.06036 259.531 -0.88959 260.669 -5.25436 258.149" stroke="#FA66FF" stroke-width="4" stroke-linecap="round"/>
<path d="M11.2102 140.591L27.3349 122.742" stroke="#82FF66" stroke-width="4" stroke-linecap="round"/>
<path d="M184.599 324.113L195.053 363.126" stroke="#669CFF" stroke-width="4" stroke-linecap="round"/>
<path d="M236.829 211.793L240.466 217.98L237.542 224.26L244.507 222.333L248.548 226.687L249.637 220.003L255.296 217.019L249.016 214.095L247.742 207.66L243.513 212.882L236.829 211.793Z" fill="#C9FF66"/>
<path d="M14.3149 145.294L24.1919 150.026L15.2072 155.508L14.3149 145.294Z" fill="#D666FF"/>
<path d="M64.0478 528.057L63.9785 525.029L66.5246 524.272L63.703 523.171L63.6338 520.143L62.0513 522.277L58.5417 521.658L60.4689 524.41L58.8864 526.544L61.9143 526.475L64.0478 528.057Z" fill="#CC66FF"/>
</g>
</svg>
