<svg width="320" height="662" viewBox="0 0 320 662" fill="none" xmlns="http://www.w3.org/2000/svg">
<g opacity="0.96">
<path d="M287.936 217.8L288.827 211.301L294.259 208.897L288.738 206.403L287.76 200.082L283.663 204.622L277.876 203.286L280.279 208.718L277.786 214.238L284.108 213.259L287.936 217.8Z" fill="#FF8266"/>
<path d="M256.213 208.862L255.853 221.679L246.786 221.095L247.566 209.005L256.213 208.862Z" fill="#66FFFC"/>
<path d="M298.111 574.592C293.726 572.597 292.169 573.819 293.439 578.259C294.224 582.979 292.424 584.341 288.039 582.347C284.139 580.072 282.582 581.294 283.367 586.014C284.637 590.454 283.079 591.676 278.695 589.681" stroke="#C266FF" stroke-width="4" stroke-linecap="round"/>
<path d="M196.935 186.83L190.92 193.212L184.538 187.197L190.132 180.087L196.935 186.83Z" fill="#FF66FA"/>
<path d="M249.453 547.414C245.607 550.008 243.961 554.294 245.777 556.986C247.593 559.678 252.183 559.758 256.029 557.164C259.875 554.569 261.521 550.284 259.705 547.592C257.889 544.899 253.299 544.82 249.453 547.414Z" fill="#FFB566"/>
<path d="M276.234 507.601C273.62 512.517 273.494 517.561 275.952 518.867C278.409 520.174 282.52 517.249 285.134 512.333C287.748 507.418 287.874 502.374 285.416 501.067C282.958 499.76 278.847 502.686 276.234 507.601Z" fill="#FF66F5"/>
<path d="M306.309 134.352L293.83 139.617L286.885 124.228L300.092 118.542L306.309 134.352Z" fill="#DB66FF"/>
<path d="M145.587 284.372C150.736 286.572 153.646 284.892 154.316 279.332C154.986 273.772 157.896 272.092 163.046 274.292C168.195 276.492 171.105 274.812 171.775 269.252C172.445 263.692 175.355 262.012 180.505 264.212" stroke="#FF66EB" stroke-width="4" stroke-linecap="round"/>
<path d="M276.361 381.52L279.128 371.193L286.043 379.81L276.361 381.52Z" fill="#FF66A6"/>
<path d="M251.585 175.646L239.27 171.117L253.512 163.864L251.585 175.646Z" fill="#667DFF"/>
<path d="M300.742 79.8695C306.255 80.6442 311.09 78.6654 311.542 75.4496C311.994 72.2337 307.892 68.9987 302.379 68.2239C296.866 67.4491 292.031 69.428 291.579 72.6438C291.127 75.8597 295.229 79.0947 300.742 79.8695Z" fill="#DEFF66"/>
<path d="M104.07 191.463C109.63 192.133 111.877 189.865 110.812 184.66C109.747 179.456 111.994 177.188 117.554 177.858C122.629 178.808 124.736 176.298 123.876 170.328C122.326 165.403 124.331 163.276 129.891 163.946" stroke="#A3FF66" stroke-width="3" stroke-linecap="round"/>
<path d="M105.442 324.039L107.061 313.404L115.236 324.204L105.442 324.039Z" fill="#FF6678"/>
<path d="M333.329 372.875C335.957 368.501 335.509 363.406 332.328 361.494C329.146 359.583 324.437 361.579 321.809 365.953C319.18 370.328 319.629 375.423 322.81 377.335C325.991 379.246 330.701 377.25 333.329 372.875Z" fill="#FF7D66"/>
<path d="M127.177 385.206L107.753 375.082" stroke="#6687FF" stroke-width="4" stroke-linecap="round"/>
<path d="M255.323 313.161L247.321 317.781L246.451 309.554L255.323 313.161Z" fill="#66FFCF"/>
<path d="M200.058 326.639L217.045 327.501L215.763 343.76L199.503 342.478L200.058 326.639Z" fill="#66FAFF"/>
<path d="M312.079 236.745L334.743 225.6" stroke="#FF66AB" stroke-width="4" stroke-linecap="round"/>
<path d="M155.685 446.343L138.841 454.128" stroke="#E3FF66" stroke-width="3" stroke-linecap="round"/>
<path d="M225.634 407.897L218.03 431.687" stroke="#FF6678" stroke-width="4" stroke-linecap="round"/>
<path d="M85.617 200.662L60.9878 191.603" stroke="#BA66FF" stroke-width="3" stroke-linecap="round"/>
<path d="M193.864 386.472L206.231 379.332L213.371 391.699L201.004 398.839L193.864 386.472Z" fill="#FF666B"/>
<path d="M194.468 245.586C197.217 246.022 199.681 244.889 199.972 243.056C200.262 241.223 198.268 239.384 195.519 238.949C192.77 238.513 190.306 239.646 190.016 241.479C189.725 243.312 191.719 245.151 194.468 245.586Z" fill="#66FFE5"/>
<path d="M90.4036 242.933L94.6865 242.881L97.203 246.64L98.7947 242.008L102.903 241.135L99.7394 238.372L99.6878 234.089L95.9289 236.606L92.1184 234.839L92.9916 238.948L90.4036 242.933Z" fill="#9166FF"/>
<path d="M210.557 473.344C208.727 467.934 205.91 466.974 202.105 470.464C197.255 473.264 194.298 472.062 193.233 466.857C191.682 461.932 188.623 461.113 184.053 464.398C179.483 467.682 176.666 466.723 175.601 461.518" stroke="#FF667D" stroke-width="3" stroke-linecap="round"/>
<path d="M262.713 276.401C266.238 272.426 265.425 269.338 260.275 267.139C255.125 264.939 254.555 261.711 258.565 257.457C262.09 253.482 261.277 250.394 256.128 248.194C250.773 246.76 250.1 243.915 254.11 239.66" stroke="#F766FF" stroke-width="3" stroke-linecap="round"/>
<path d="M299.807 452.369L275.463 460.604" stroke="#9666FF" stroke-width="4" stroke-linecap="round"/>
<path d="M328.189 122.689C324.104 125.694 324.254 128.194 328.639 130.189C333.304 132.669 333.594 135.411 329.51 138.416C325.425 141.421 325.575 143.921 329.96 145.916C334.83 147.63 335.362 150.233 331.557 153.723" stroke="#66FFE0" stroke-width="4" stroke-linecap="round"/>
<path d="M162.553 222.199C157.198 220.764 154.811 222.789 155.391 228.274C155.206 233.554 152.436 235.476 147.082 234.041C142.212 232.327 139.824 234.351 139.919 240.116C140.705 244.836 138.177 246.619 132.337 245.464" stroke="#FF669C" stroke-width="3" stroke-linecap="round"/>
<path d="M161.693 157.709L156.346 150.127L165.72 149.564L161.693 157.709Z" fill="#FF66BA"/>
<path d="M143.25 286.205C139.166 289.21 139.456 291.953 144.121 294.433C148.785 296.912 148.973 300.037 144.683 303.807C140.598 306.812 140.889 309.555 145.553 312.034C150.218 314.514 150.508 317.257 146.424 320.262" stroke="#FFF066" stroke-width="3" stroke-linecap="round"/>
<path d="M248.343 102.832L260.883 111.111L251.876 124.071L239.336 115.791L248.343 102.832Z" fill="#668CFF"/>
<path d="M166.788 360.455C170.034 362.254 173.395 362.397 174.295 360.774C175.194 359.151 173.292 356.377 170.046 354.577C166.8 352.778 163.44 352.635 162.54 354.258C161.64 355.881 163.542 358.655 166.788 360.455Z" fill="#FFAD66"/>
<path d="M63.6526 298.698L76.0797 305.103L69.6753 317.53L57.6681 311.853L63.6526 298.698Z" fill="#FF66ED"/>
<path d="M264.149 610.689L224.356 612.324" stroke="#CCFF66" stroke-width="3" stroke-linecap="round"/>
<path d="M33.3082 269.66L37.9502 259.22L52.6723 266.24L48.0302 276.679L33.3082 269.66Z" fill="#FF6699"/>
<path d="M315.793 298.617L327.8 304.294L320.863 314.119L315.793 298.617Z" fill="#66FF99"/>
<path d="M286.259 612.175L283.009 619.83L275.685 621.883L282.097 626.54L281.814 634.808L288.194 630.419L295.534 632.889L293.48 625.565L298.138 619.153L290.184 619.649L286.259 612.175Z" fill="#8F66FF"/>
<path d="M303.828 513.094L312.085 518.996L305.651 524.651L303.828 513.094Z" fill="#A166FF"/>
<path d="M319.932 406.833L317.357 409.149L312.935 408.193L314.781 411.465L312.433 414.947L315.931 414.267L318.474 418.008L318.96 414.283L322.928 412.907L320.142 411.028L319.932 406.833Z" fill="#FFD666"/>
<path d="M302.077 201.781C305.602 197.807 304.649 194.477 299.219 191.792C294.35 190.077 293.92 187.092 297.929 182.837C301.174 178.377 300.222 175.048 295.072 172.848C290.202 171.133 289.529 168.288 293.054 164.313" stroke="#66FFE3" stroke-width="4" stroke-linecap="round"/>
<path d="M195.922 521.076L198.382 511.897L205.912 518.219L195.922 521.076Z" fill="#8066FF"/>
<path d="M141.119 232.828L147.343 235.868L148.585 242.144L153.094 237.091L159.842 237.666L156.782 231.863L159.648 226.461L152.55 227.529L147.498 223.02L146.922 229.768L141.119 232.828Z" fill="#7066FF"/>
<path d="M215.143 157.888L190.229 131.534" stroke="#FF8C66" stroke-width="3" stroke-linecap="round"/>
<path d="M249.696 481.309L249.941 474.917L255.613 470.94L249.403 468.825L246.994 462.551L243.493 467.494L236.316 467.55L240.293 473.222L237.877 478.648L244.452 477.024L249.696 481.309Z" fill="#66FFB5"/>
<path d="M252.427 271.185C248.062 273.705 248.315 275.822 253.185 277.537C257.569 279.532 257.719 282.032 253.635 285.037C249.55 288.042 249.942 290.402 254.812 292.117C259.197 294.111 259.207 296.369 254.842 298.889" stroke="#FA66FF" stroke-width="4" stroke-linecap="round"/>
<path d="M140.362 397.962L163.371 417.656" stroke="#CCFF66" stroke-width="3" stroke-linecap="round"/>
<path d="M165.774 360.497C169.858 357.492 169.503 355.757 164.709 355.292C159.914 354.827 159.316 353.232 162.916 350.507C167.281 347.987 167.066 346.495 162.271 346.03C157.476 345.565 157.121 343.83 161.206 340.825" stroke="#66F5FF" stroke-width="4" stroke-linecap="round"/>
<path d="M190.498 347.986C188.823 350.209 188.666 352.917 190.148 354.033C191.63 355.15 194.189 354.253 195.865 352.03C197.54 349.807 197.696 347.1 196.214 345.983C194.732 344.866 192.173 345.763 190.498 347.986Z" fill="#9C66FF"/>
<path d="M161.267 225.851L153.872 202.962" stroke="#82FF66" stroke-width="4" stroke-linecap="round"/>
<path d="M172.646 453.04C168.281 455.56 168.533 457.677 173.403 459.392C177.788 461.387 177.938 463.886 173.853 466.891C169.694 468.646 169.806 470.521 174.191 472.516C179.061 474.231 179.313 476.348 174.949 478.868" stroke="#FF66EB" stroke-width="3" stroke-linecap="round"/>
<path d="M274.552 326.307C269.198 324.872 266.81 326.897 267.39 332.382C267.205 337.662 264.678 339.444 259.808 337.73C254.453 336.295 252.066 338.32 252.646 343.804C252.946 348.804 250.419 350.587 245.064 349.152" stroke="#66FFA8" stroke-width="4" stroke-linecap="round"/>
<path d="M166.892 225.514L175.929 219.326L176.184 229.848L166.892 225.514Z" fill="#D666FF"/>
</g>
</svg>
